<?xml version="1.0" standalone="no"?><!DOCTYPE svg PUBLIC "-//W3C//DTD SVG 1.1//EN" "http://www.w3.org/Graphics/SVG/1.1/DTD/svg11.dtd"><svg t="1668133030040" class="icon" viewBox="0 0 1316 1024" version="1.1" xmlns="http://www.w3.org/2000/svg" p-id="2690" xmlns:xlink="http://www.w3.org/1999/xlink" width="257.03125" height="200"><path d="M68.059429 389.705143H118.930286l-25.709715-61.696z m354.852571 300.580571l42.276571-45.129143-40.009142-45.129142H332.032v28.013714h81.152v31.414857H332.032v30.866286h90.843429z m90.294857-44.580571l56.576 62.866286v-124.013715z m164.571429-26.843429c0-13.714286-10.276571-18.870857-22.857143-18.870857h-48.018286v39.424h47.433143c13.129143 0 23.442286-6.290286 23.442286-20.553143z m165.156571-2.304c0-14.299429-12.580571-16.566857-23.990857-16.566857H772.096v34.852572h46.299429c12.580571 0 24.576-2.852571 24.576-18.285715z m-158.866286-266.276571c0-14.299429-12.580571-16.566857-23.990857-16.566857h-46.848v34.304h46.299429c12.580571 0 24.576-2.852571 24.576-17.700572z m262.290286 39.424h50.870857l-25.161143-61.696zM399.506286 301.129143v154.843428H361.801143V334.811429l-53.723429 121.161142h-32.585143L221.769143 334.811429v121.161142H146.322286l-14.299429-34.304H54.893714l-14.299428 34.304H0.585143l66.304-154.843428h54.857143l62.866285 146.870857V301.129143h60.562286l48.566857 105.142857 43.995429-105.142857h61.696z m317.696 317.732571c0 62.281143-67.986286 52.004571-110.299429 52.004572v52.004571h-72.009143l-45.714285-51.419428-47.433143 51.419428h-146.285715v-154.843428h148.553143l45.714286 50.870857 46.848-50.870857h118.272c34.852571 0 62.281143 11.995429 62.281143 50.870857z m-166.290286-194.852571v32h-124.013714V301.165714h124.013714v32.585143h-86.857143v28.013714h84.553143v31.414858h-84.553143v30.866285h86.857143zM1316.644571 743.424v130.852571C1316.644571 916.004571 1282.925714 950.857143 1241.197714 950.857143H75.483429c-41.728 0-75.446857-34.852571-75.446858-76.580572V486.838857h63.414858l14.299428-34.852571h31.414857l14.299429 34.852571H248.027429v-26.294857l10.861714 26.294857h64.585143l11.446857-26.843428v26.843428h309.138286v-56.576l5.705142-0.585143c5.156571 0 5.705143 3.986286 5.705143 8.009143v49.152h159.414857v-13.129143c37.156571 19.419429 87.990857 13.129143 126.866286 13.129143l14.299429-34.852571h32l14.299428 34.852571h129.718857v-33.133714l19.419429 33.133714h104.009143V270.848h-102.838857v25.161143l-14.299429-25.161143h-105.728v25.161143l-13.129143-25.161143h-142.299428c-21.138286 0-43.446857 2.304-62.281143 12.580571v-12.580571h-98.304v12.580571c-11.446857-10.276571-26.843429-12.580571-41.728-12.580571H316.050286l-24.576 55.442286-24.576-55.442286H153.746286v25.161143l-12.580572-25.161143H44.580571l-44.580571 102.290286V149.723429C0 107.995429 33.718857 73.142857 75.446857 73.142857h1165.714286c41.728 0 75.446857 34.852571 75.446857 76.580572v387.437714h-68.571429c-16.018286 0-33.133714 2.852571-46.299428 12.580571v-12.580571h-101.156572c-14.299429 0-33.718857 2.304-44.580571 12.580571v-12.580571h-180.553143v12.580571c-13.714286-9.728-33.718857-12.580571-49.700571-12.580571h-119.442286v12.580571c-11.995429-11.446857-36.571429-12.580571-52.004571-12.580571h-133.705143l-30.866286 33.133714-28.562286-33.133714H261.741714v215.990857h195.986286l31.414857-33.718857 29.696 33.718857h120.576v-50.870857h11.995429c17.152 0 34.852571-0.585143 51.419428-7.424v58.294857h99.437715v-56.576h4.571428c5.705143 0 6.838857 0.585143 6.838857 6.838857v49.700572h302.299429c16.566857 0 37.156571-3.437714 50.285714-13.714286v13.714286h96c18.285714 0 37.705143-1.718857 54.272-9.728z m-433.152-133.705143c0 17.152-9.142857 34.304-26.294857 41.142857 20.553143 7.424 24.576 21.138286 24.576 41.142857v30.866286h-37.156571v-25.709714c0-26.294857-8.557714-30.866286-33.133714-30.866286h-39.424v56.576h-37.156572v-154.843428h87.990857c29.147429 0 60.562286 5.156571 60.562286 41.728z m-158.281142-266.861714c0 17.700571-9.728 34.852571-26.294858 41.728 21.138286 7.424 24.576 20.553143 24.576 41.142857v30.281143h-37.156571c-0.585143-33.133714 8.009143-55.990857-33.133714-55.990857h-40.009143v55.990857h-36.571429V301.165714l87.442286 0.585143c29.696 0 61.147429 4.571429 61.147429 41.142857z m302.299428 348.013714v32h-123.428571v-154.843428h123.428571v32h-86.272v28.013714h84.553143v31.414857h-84.553143v30.866286zM784.091429 301.129143v154.843428h-37.705143V301.129143h37.705143z m395.995428 372.589714c0 36.571429-25.161143 49.152-58.294857 49.152h-72.009143v-33.133714h72.009143c9.142857 0 19.419429-2.304 19.419429-14.299429 0-33.133714-95.414857 12.580571-95.414858-61.147428 0-31.414857 23.990857-46.299429 52.553143-46.299429h74.276572v32.585143h-67.986286c-9.728 0-20.553143 1.718857-20.553143 14.299429 0 33.718857 96-15.433143 96 58.843428zM1316.644571 645.156571v57.709715c-10.861714 16.018286-32 20.004571-50.285714 20.004571h-71.424v-33.133714h71.424c9.142857 0 18.870857-2.852571 18.870857-14.299429 0-32.585143-95.414857 12.580571-95.414857-61.147428 0-31.414857 24.576-46.299429 53.138286-46.299429h73.728v32.585143h-67.437714c-10.276571 0-20.553143 1.718857-20.553143 14.299429 0 27.428571 64.585143-0.585143 87.990857 30.281142zM1222.363429 301.714286v154.294857h-52.553143l-69.705143-116.004572v116.004572h-75.446857l-14.848-34.304h-76.580572l-14.299428 34.304h-42.861715c-50.870857 0-73.728-26.294857-73.728-75.995429 0-52.004571 23.442286-78.848 75.995429-78.848h35.986286v33.718857c-38.838857-0.585143-74.276571-9.142857-74.276572 43.995429 0 26.294857 6.290286 44.580571 35.986286 44.580571h16.566857l52.553143-121.709714h55.442286l62.281143 146.285714v-146.285714h56.576l65.133714 107.446857V301.750857h37.705143z" fill="#1296db" p-id="2691"></path></svg>