<?xml version="1.0" standalone="no"?><!DOCTYPE svg PUBLIC "-//W3C//DTD SVG 1.1//EN" "http://www.w3.org/Graphics/SVG/1.1/DTD/svg11.dtd"><svg t="1668132482372" class="icon" viewBox="0 0 1317 1024" version="1.1" xmlns="http://www.w3.org/2000/svg" p-id="7120" xmlns:xlink="http://www.w3.org/1999/xlink" width="257.2265625" height="200"><path d="M383.428571 533.142857l-7.428571 0q-26.857143 0-26.857143 18.285714 0 12.571429 11.428571 12.571429 9.714286 0 16-8.571429t6.857143-22.285714zm225.714286-20.571429l35.428571 0 0-1.714286q0.571429-2.285714 2.857143-3.714286t-0.571429-4-1.142857-4.571429-2.571429-3.714286-4.285714-2.857143-6.571429-1.142857q-16 0-20.571429 21.714286zm308.571429 20.571429l-6.857143 0q-27.428571 0-27.428571 18.285714 0 12.571429 11.428571 12.571429 9.714286 0 16-8.571429t6.857143-22.285714zm182.285714-14.857143q0-23.428571-17.142857-23.428571-10.857143 0-17.714286 11.428571t-6.857143 29.142857q0 24 16 24 11.428571 0 18.571429-11.428571t7.142857-29.714286zm-825.714286-80.571429l49.714286 0-25.142857 149.714286-32 0 18.285714-114.857143-40.571429 114.857143-22.285714 0-2.285714-114.285714-19.428571 114.285714-30.285714 0 25.142857-149.714286 46.285714 0 1.142857 93.142857zm144.571429 61.142857q0 3.428571-2.285714 24-9.142857 57.714286-9.714286 64.571429l-26.857143 0 0.571429-12.571429q-11.428571 14.857143-33.142857 14.857143-13.142857 0-21.428571-9.142857t-8.285714-24q0-22.285714 14.857143-34.571429t41.714286-12.285714q8 0 13.142857 0.571429 0-1.714286 2.857143-3.142857t0.571429-2.571429 2.857143-1.714286q0-11.428571-20.571429-11.428571-16.571429 0-33.714286 5.714286 0-2.285714 4-27.428571 21.714286-6.285714 38.285714-6.285714 42.285714 0 42.285714 35.428571zm89.142857-33.142857l-4.571429 28q-12.571429-1.714286-23.428571-1.714286-15.428571 0-15.428571 9.714286 0 4.571429 2.571429 6.857143t12.285714 6.285714q22.857143 10.857143 22.857143 34.285714 0 41.142857-49.714286 40.571429-19.428571 0-33.142857-3.428571 0-1.142857 4-28 16.571429 4.571429 29.142857 4.571429 18.285714 0 18.285714-10.857143 0-4-2.571429-6.571429t-12.285714-7.142857q-24.571429-11.428571-24.571429-33.714286 0-41.142857 48-41.142857 17.142857 0 28.571429 2.285714zm50.285714 0l16 0-4 29.714286-16.571429 0q-1.142857 9.714286-3.714286 23.142857t-4 22-1.428571 10.285714q0 9.142857 10.857143 9.142857 4.571429 0 9.142857-1.142857l-4.571429 26.857143q-12 4-22.857143 4-24.571429 0-25.714286-26.857143 0-6.857143 4.571429-32 1.714286-11.428571 14.285714-83.428571l31.428571 0zm116 41.714286q0 13.142857-4 29.714286l-63.428571 0q-1.714286 12.571429 5.714286 18.857143t21.714286 6.285714q17.142857 0 33.142857-8l-5.142857 30.857143q-17.142857 4.571429-32.571429 4.571429-54.285714 0-54.285714-54.285714 0-31.428571 15.714286-51.714286t39.714286-20.285714q20 0 31.714286 12t11.714286 32zm79.428571-42.285714q-7.428571 13.142857-12.571429 35.428571-12.571429-1.142857-17.714286 13.714286t-14.285714 73.142857l-32 0 1.714286-8q12.571429-74.285714 16.571429-113.714286l29.142857 0-1.714286 18.857143q8-12 14.571429-16.857143t16.285714-2.571429zm106.857143-23.428571l-5.142857 32.571429q-16-8-28.571429-8-17.714286 0-29.142857 15.714286t-11.428571 40.285714q0 17.142857 7.714286 26.857143t22 9.714286q12 0 27.428571-7.428571l-5.714286 33.714286q-16 4.571429-28.571429 4.571429-25.714286 0-40.857143-17.428571t-15.142857-47.142857q0-40 20.285714-65.428571t52.285714-25.428571q14.857143 0 34.857143 7.428571zm92.571429 57.142857q0 10.285714-2.285714 24-7.428571 45.142857-9.714286 64.571429l-26.285714 0 0.571429-12.571429q-11.428571 14.857143-33.714286 14.857143-13.142857 0-21.142857-9.142857t-8-24q0-22.285714 14.571429-34.571429t41.428571-12.285714q8.571429 0 13.142857 0.571429 1.142857-4 1.142857-7.428571 0-11.428571-20.571429-11.428571-16.571429 0-33.714286 5.714286 0-2.285714 4.571429-27.428571 21.714286-6.285714 38.285714-6.285714 41.714286 0 41.714286 35.428571zm80.571429-33.714286q-8 13.714286-12 35.428571-13.142857-1.142857-18 13.142857t-14.571429 73.714286l-32 0 1.714286-8q10.857143-59.428571 16.571429-113.714286l29.714286 0q0 6.285714-2.285714 18.857143 8.571429-12 15.142857-16.857143t15.714286-2.571429zm80.571429-27.428571l32 0-24.571429 149.714286-30.285714 0 1.714286-10.857143q-13.142857 13.142857-29.714286 13.142857-17.714286 0-28.285714-13.714286t-10.571429-36.571429q0-30.285714 15.714286-52.571429t36.857143-22.285714q17.714286 0 30.285714 16.571429zm63.428571 74.285714q0-84.571429-41.428571-156t-113.142857-113.142857-156.285714-41.714286q-103.428571 0-187.428571 62.857143 72.571429 66.285714 97.714286 162.285714l-28.571429 0q-25.142857-85.714286-90.285714-144.571429-65.142857 58.857143-90.285714 144.571429l-28.571429 0q25.142857-96 97.714286-162.285714-84-62.857143-187.428571-62.857143-84.571429 0-156.285714 41.714286t-113.142857 113.142857-41.428571 156 41.428571 156 113.142857 113.142857 156.285714 41.714286q103.428571 0 187.428571-62.857143-68.571429-63.428571-94.285714-150.857143l28.571429 0q26.285714 78.857143 86.857143 133.142857 60.571429-54.285714 86.857143-133.142857l28.571429 0q-25.714286 87.428571-94.285714 150.857143 84 62.857143 187.428571 62.857143 84.571429 0 156.285714-41.714286t113.142857-113.142857 41.428571-156zm138.857143-365.714286l0 731.428571q0 29.714286-21.714286 51.428571t-51.428571 21.714286l-1170.285714 0q-29.714286 0-51.428571-21.714286t-21.714286-51.428571l0-731.428571q0-29.714286 21.714286-51.428571t51.428571-21.714286l1170.285714 0q29.714286 0 51.428571 21.714286t21.714286 51.428571z" p-id="7121" fill="#1296db"></path></svg>