<?xml version="1.0" standalone="no"?><!DOCTYPE svg PUBLIC "-//W3C//DTD SVG 1.1//EN" "http://www.w3.org/Graphics/SVG/1.1/DTD/svg11.dtd"><svg t="1668132442484" class="icon" viewBox="0 0 1317 1024" version="1.1" xmlns="http://www.w3.org/2000/svg" p-id="5668" xmlns:xlink="http://www.w3.org/1999/xlink" width="257.2265625" height="200"><path d="M1128.571429 565.714286l-78.857143 0q8-21.142857 37.714286-102.285714l1.714286-5.142857q2.285714-5.714286 5.714286-14.857143t5.142857-14.857143l6.857143 31.428571zm-825.142857-37.142857l-33.142857-168.571429q-6.285714-30.857143-42.857143-30.857143l-153.142857 0-1.142857 7.428571q177.714286 45.142857 230.285714 192zm102.285714-199.428571l-92.571429 250.285714-9.714286-50.857143q-14.857143-40-48.571429-74t-74.857143-50.571429l77.142857 291.428571 100 0 149.142857-366.285714-100.571429 0zm79.428571 366.857143l94.857143 0 59.428571-366.857143-94.857143 0zm438.857143-357.714286q-39.428571-15.428571-85.142857-15.428571-70.285714 0-114.857143 33.714286t-45.142857 87.428571q-0.571429 58.285714 82.857143 99.428571 27.428571 13.142857 38.285714 23.428571t10.857143 22.285714q0 17.142857-17.142857 26.285714t-39.428571 9.142857q-49.142857 0-89.142857-18.857143l-12.571429-6.285714-13.142857 82.285714q42.285714 19.428571 105.714286 19.428571 74.285714 0.571429 119.142857-33.714286t46-91.428571q0-60.571429-80-99.428571-28-14.285714-40.571429-24t-12.571429-21.714286q0-12.571429 14-22t40.285714-9.428571q40-0.571429 70.857143 13.714286l8.571429 4.571429zm242.857143-9.142857l-73.142857 0q-37.142857 0-49.714286 30.857143l-140.571429 336 99.428571 0 20-54.857143 121.142857 0q2.857143 12.571429 11.428571 54.857143l88 0zm149.714286-182.857143l0 731.428571q0 29.714286-21.714286 51.428571t-51.428571 21.714286l-1170.285714 0q-29.714286 0-51.428571-21.714286t-21.714286-51.428571l0-731.428571q0-29.714286 21.714286-51.428571t51.428571-21.714286l1170.285714 0q29.714286 0 51.428571 21.714286t21.714286 51.428571z" p-id="5669" fill="#1296db"></path></svg>