<?xml version="1.0" standalone="no"?><!DOCTYPE svg PUBLIC "-//W3C//DTD SVG 1.1//EN" "http://www.w3.org/Graphics/SVG/1.1/DTD/svg11.dtd"><svg t="1668132557470" class="icon" viewBox="0 0 1316 1024" version="1.1" xmlns="http://www.w3.org/2000/svg" p-id="9337" xmlns:xlink="http://www.w3.org/1999/xlink" width="257.03125" height="200"><path d="M178.857143 444q0 29.142857-20.571429 48-16.571429 14.857143-50.857143 14.857143h-9.714285V381.142857h9.714285q34.857143 0 50.857143 15.428572 20.571429 17.714286 20.571429 47.428571z m1014.857143-37.142857q0 29.714286-36.571429 29.714286h-10.857143V378.857143h11.428572q36 0 36 28zM217.142857 444q0-42.285714-28.571428-68.857143T114.857143 348.571429h-54.285714v190.285714h54.285714q42.285714 0 68-21.714286 34.285714-29.142857 34.285714-73.142857z m17.142857 94.857143h37.142857V348.571429h-37.142857v190.285714z m182.857143-57.714286q0-22.857143-11.714286-35.428571T362.285714 421.714286q-16.571429-5.714286-22.571428-10.857143T333.714286 397.714286q0-9.142857 7.714285-15.142857T361.142857 376.571429q16.571429 0 30.285714 15.428571l19.428572-25.142857q-23.428571-21.142857-56-21.142857-25.142857 0-42.285714 15.714285T295.428571 400q0 20 10.285715 31.714286t36.571428 20.857143q21.142857 7.428571 25.714286 10.857142 10.857143 6.857143 10.857143 19.428572 0 11.428571-8 19.142857T350.285714 509.714286q-27.428571 0-40.571428-25.142857l-24 22.857142q25.142857 36.571429 65.714285 36.571429 29.142857 0 47.428572-17.428571t18.285714-45.428572z m158.857143 51.428572v-44q-21.142857 21.142857-44.571429 21.142857-28 0-46-18.571429T467.428571 444q0-27.428571 18-46.571429T529.714286 378.285714q24.571429 0 46.285714 21.714286v-44q-22.857143-11.428571-45.714286-11.428571-42.285714 0-71.714285 28.857142T429.142857 444t29.142857 70.571429T529.714286 543.428571q24 0 46.285714-10.857142z m704 345.142857v-301.142857q-37.142857 22.857143-82.571429 48T1061.714286 691.428571t-188.285715 78.571429T634.857143 846.857143t-288 67.428571h896.571428q14.857143 0 25.714286-10.857143t10.857143-25.714285z m-486.285714-432.571429q0-42.857143-30.285715-73.142857t-73.142857-30.285714-73.142857 30.285714-30.285714 73.142857 30.285714 73.142857 73.142857 30.285715 73.142857-30.285715 30.285715-73.142857z m86.857143 98.857143l82.285714-195.428571h-40.571429l-51.428571 128-50.857143-128h-40.571429l81.142858 195.428571h20z m98.857142-5.142857h105.142858v-32h-68v-51.428572h65.714285v-32h-65.714285v-42.285714h68v-32.571428h-105.142858v190.285714z m223.428572 0h45.714286l-60-80q43.428571-9.142857 43.428571-53.714286 0-26.857143-17.714286-41.714286t-49.714285-14.857142h-55.428572v190.285714h37.142857V462.857143h5.142857z m113.714286-389.142857v724.571428q0 32-22 54.285715t-53.428572 22.285714H75.428571q-31.428571 0-53.428571-22.285714t-22-54.285715V149.714286q0-32 22-54.285715t53.428571-22.285714h1165.714286q31.428571 0 53.428572 22.285714t22 54.285715z" p-id="9338" fill="#1296db"></path></svg>