<?xml version="1.0" standalone="no"?><!DOCTYPE svg PUBLIC "-//W3C//DTD SVG 1.1//EN" "http://www.w3.org/Graphics/SVG/1.1/DTD/svg11.dtd"><svg t="1668132520362" class="icon" viewBox="0 0 1316 1024" version="1.1" xmlns="http://www.w3.org/2000/svg" p-id="8360" xmlns:xlink="http://www.w3.org/1999/xlink" width="257.03125" height="200"><path d="M1053.65836 538.980545q0 14.041577-8.37094 24.0327T1024.495084 575.704671q-4.320485 1.080121-9.721092 1.080121h-82.629282V501.176299h82.629282q5.400607 0 9.721092 1.080121 12.421395 2.700303 20.792336 12.691426T1053.65836 538.980545z m-9.721092-115.032922q0 13.501517-8.10091 22.682548t-20.522305 11.341274q-1.620182 0.540061-8.10091 0.540061h-75.068433V388.84368h75.068433q1.620182 0 4.590516 0.27003t3.510394 0.270031q12.421395 2.160243 20.522305 11.611304t8.10091 22.952578zM393.164165 512.517573V346.178887H270.030333v166.338686q0 31.323519-20.522305 51.035733T192.801658 583.26552q-58.326552 0-123.673893-31.863579v60.486794q28.623215 8.10091 65.347341 12.421396t58.866613 4.860546l22.682548 0.54006q177.139899 0 177.139898-117.193164z m385.603316 99.371162v-61.026855q-53.466006 28.083155-108.012133 31.863579-58.326552 4.320485-91.270253-22.142487t-32.9437-76.688615 32.9437-76.688614 91.270253-22.142488q54.546127 3.780425 108.012133 31.323519V355.899979q-25.922912-6.480728-54.006067-10.531183t-43.204853-5.130576l-15.121698-1.080121q-68.587705-3.240364-118.003256 7.560849T472.553083 379.122588t-38.344307 47.525339-11.881335 57.24643 11.881335 57.246431 38.344307 47.525339 75.878524 32.40364 118.003256 7.560849q54.546127-2.160243 112.332618-16.741881z m396.404529-62.106976q0-29.163276-23.222608-47.795369T1093.082789 480.653993v-1.620182q30.783458-4.320485 48.065399-22.412517t17.281942-42.934823q0-29.703337-22.142488-47.525339t-57.786491-19.442184q-1.620182 0-6.480728-0.27003t-7.560849-0.270031h-245.727604v275.43094h265.169788q39.964489 0 65.617371-19.712214t25.652881-52.115854z m69.127766-411.526228v691.277653q0 28.083155-20.522306 48.60546t-48.60546 20.522305H69.127765q-28.083155 0-48.60546-20.522305t-20.522305-48.60546V138.255531q0-28.083155 20.522305-48.60546t48.60546-20.522306h1106.044245q28.083155 0 48.60546 20.522306t20.522306 48.60546z" p-id="8361" fill="#1296db"></path></svg>